<?xml version="1.0" encoding="UTF-8" standalone="no"?>
<svg
   xmlns:dc="http://purl.org/dc/elements/1.1/"
   xmlns:cc="http://creativecommons.org/ns#"
   xmlns:rdf="http://www.w3.org/1999/02/22-rdf-syntax-ns#"
   xmlns:svg="http://www.w3.org/2000/svg"
   xmlns="http://www.w3.org/2000/svg"
   viewBox="0 0 545.33331 188"
   height="188"
   width="545.33331"
   xml:space="preserve"
   id="svg2"
   version="1.1"><metadata
     id="metadata8"><rdf:RDF><cc:Work
         rdf:about=""><dc:format>image/svg+xml</dc:format><dc:type
           rdf:resource="http://purl.org/dc/dcmitype/StillImage" /></cc:Work></rdf:RDF></metadata><defs
     id="defs6" /><g
     transform="matrix(1.3333333,0,0,-1.3333333,0,188)"
     id="g10"><g
       transform="scale(0.1)"
       id="g12"><path
         id="path14"
         style="fill:#004a97;fill-opacity:1;fill-rule:evenodd;stroke:none"
         d="M 1938.52,6.41016 C 1759.53,6.71875 1587.7,14.3789 1423.01,29.3789 1258.67,44.3789 1104.34,65.8984 960,93.9102 816.02,121.879 685.352,155.391 568.012,194.379 450.352,233.051 349.18,276.211 264.531,323.91 179.84,371.559 114.84,422.73 69.5313,477.379 23.8711,531.719 0.660156,588.551 0,647.891 0.660156,709.219 25.3516,767.891 74.0195,823.91 123.012,880.23 192.5,932.73 282.5,981.41 215.859,936.719 165,890.23 130,841.879 95,793.551 78.0117,743.91 79.0195,692.891 81.0195,633.238 107.699,576.41 159.02,522.379 210,468.711 282.191,418.91 375.512,372.891 468.871,327.23 579.84,286.41 708.52,250.391 c 128.671,-36.012 271.832,-66.172 429.49,-90.512 157.65,-24.328 326.17,-41.828 505.51,-52.5 C 1822.85,96.7188 2010,93.7109 2205,98.3984 c 164.69,4.3316 323.87,13.9806 477.5,28.9806 153.67,15 299.84,34.691 438.52,59.031 138.32,24.328 267.14,52.649 386.48,85 C 3419.18,231.051 3318.16,194.73 3204.53,162.379 3090.86,129.73 2967.03,101.719 2833.01,78.3984 2698.67,55.3906 2556.52,37.7305 2406.52,25.3906 2256.17,12.7305 2100.2,6.41016 1938.52,6.41016" /><path
         id="path16"
         style="fill:#6ea83a;fill-opacity:1;fill-rule:evenodd;stroke:none"
         d="m 2205,98.3984 c -194.65,-4.6875 -381.84,-1.6796 -561.48,8.9806 -179.34,10.672 -347.86,28.172 -505.51,52.5 -157.35,24.34 -300.51,54.5 -429.49,90.512 C 579.84,286.41 468.871,327.23 375.512,372.891 282.191,418.91 210,468.711 159.02,522.379 107.699,576.41 81.0195,633.238 79.0195,692.891 78.0117,743.551 95,793.238 130,841.879 c 35,48.351 85.859,94.68 152.5,139.019 66.68,44.652 147.191,86.642 241.52,125.982 94.339,39.33 200.511,75.5 318.48,108.51 -85.309,-38.01 -157.969,-78.32 -217.969,-121.01 -60.351,-42.66 -106.172,-87 -137.5,-132.97 -31.371,-46.019 -46.519,-93.012 -45.511,-141.019 2,-60 28.679,-116.84 80,-170.512 50.98,-53.668 123.171,-103.469 216.492,-149.488 93.359,-45.661 204.328,-86.481 333.008,-122.5 128.98,-36.332 272.14,-66.68 429.49,-91.012 157.65,-23.988 326.17,-41.488 505.51,-52.5 179.64,-10.668 366.83,-13.481 561.48,-8.481 169.02,4.332 332.03,14.332 489.02,30 157,15.661 306.18,36.172 447.5,61.481 140.98,25.351 271.84,54.851 392.5,88.519 -95.35,-42.66 -204.18,-81.839 -326.52,-117.5 -122.3,-35.347 -255.82,-66.519 -400.47,-93.519 -144.69,-26.641 -298.01,-48.32 -460,-65 C 2547.5,113.551 2379.34,103.051 2205,98.3984" /><path
         id="path18"
         style="fill:#6ea83a;fill-opacity:1;fill-rule:evenodd;stroke:none"
         d="m 2205,1407.89 c 172.03,4.65 337.19,1.68 495.51,-8.98 158.36,-10.36 306.99,-27.5 446.01,-51.53 138.99,-23.67 265.51,-53.32 379.5,-88.98 113.67,-35.35 211.68,-75.51 293.98,-120.51 82.34,-45 146.02,-93.83 191.02,-146.48 45,-53.012 68.51,-108.871 70.5,-167.5 0.98,-52.699 -15.86,-104.031 -50.5,-154.031 -34.34,-50 -84.18,-97.809 -149.5,-143.469 -65.35,-45.672 -144.18,-88.519 -236.52,-128.519 92.03,52.339 162.7,108.16 212.03,167.5 48.99,58.988 73.17,120.16 72.5,183.519 -2.03,58.629 -25.51,114.488 -70.51,167.5 -45,52.649 -108.67,101.48 -191.01,146.48 -82.35,45 -180.31,85.16 -293.99,120.51 -114.02,35.31 -240.5,65 -379.49,88.98 -139.02,23.67 -287.69,40.86 -446.01,51.53 -158.32,10.31 -323.52,13.16 -495.51,8.47 -156.64,-4.65 -307.66,-15.31 -453.01,-31.99 -145.31,-16.68 -282.5,-38.51 -411.48,-65.51 -129.34,-27.34 -248.321,-58.83 -357,-94.49 -41.321,-11.01 -81.168,-22.5 -119.489,-34.49 84.34,41.99 180.469,80.31 288.479,115 108.01,35 225.86,65.66 353.51,91.99 127.35,26.33 262.5,47.5 405.51,63.52 142.97,16.32 291.49,26.83 445.47,31.48" /><path
         id="path20"
         style="fill:#004a97;fill-opacity:1;fill-rule:evenodd;stroke:none"
         d="M 764.84,735.859 H 713.5197 V 992.191 H 764.84 Z M 855.98,845.27 V 735.859 h -48.789 v 191.442 h 11.789 l 16.098,-18.59 c 7.852,7.148 16.762,12.66 26.723,16.559 9.961,3.871 20.347,5.781 31.211,5.781 11.679,0 22.687,-2.223 33.039,-6.672 10.398,-4.5 19.461,-10.629 27.187,-18.438 7.742,-7.781 13.871,-16.921 18.321,-27.351 4.492,-10.43 6.722,-21.52 6.722,-33.32 V 735.859 H 929.449 V 845.27 c 0,5 -0.929,9.73 -2.847,14.218 -1.911,4.461 -4.532,8.364 -7.852,11.684 -3.359,3.359 -7.23,5.976 -11.641,7.887 -4.41,1.882 -9.097,2.851 -14.097,2.851 -5.121,0 -9.961,-0.969 -14.492,-2.851 -4.54,-1.911 -8.481,-4.528 -11.801,-7.887 -3.321,-3.32 -5.938,-7.223 -7.848,-11.684 C 856.949,855 855.98,850.27 855.98,845.27 Z m 205.78,0 V 735.859 h -48.79 v 191.442 h 11.8 l 16.05,-18.59 c 7.89,7.148 16.8,12.66 26.76,16.559 9.92,3.871 20.35,5.781 31.17,5.781 11.68,0 22.7,-2.223 33.09,-6.672 10.35,-4.5 19.41,-10.629 27.14,-18.438 7.78,-7.781 13.87,-16.921 18.36,-27.351 4.46,-10.43 6.68,-21.52 6.68,-33.32 V 735.859 h -48.79 V 845.27 c 0,5 -0.97,9.73 -2.85,14.218 -1.91,4.461 -4.53,8.364 -7.89,11.684 -3.32,3.359 -7.19,5.976 -11.6,7.887 -4.41,1.882 -9.14,2.851 -14.14,2.851 -5.12,0 -9.96,-0.969 -14.45,-2.851 -4.53,-1.911 -8.48,-4.528 -11.84,-7.887 -3.32,-3.32 -5.94,-7.223 -7.85,-11.684 -1.91,-4.488 -2.85,-9.218 -2.85,-14.218 z m 206.09,-109.411 h -49.1406 v 267.621 h 49.1406 z m 222.58,191.09 v -191.09 h -11.8 l -18.94,26.289 c -4.65,-4.179 -9.57,-8.089 -14.77,-11.718 -5.15,-3.629 -10.62,-6.801 -16.33,-9.489 -5.74,-2.66 -11.6,-4.769 -17.61,-6.332 -6.02,-1.558 -12.15,-2.339 -18.32,-2.339 -13.48,0 -26.14,2.261 -38.01,6.789 -11.84,4.531 -22.23,11.14 -31.1,19.769 -8.86,8.633 -15.89,19.223 -21.01,31.723 -5.12,12.539 -7.66,26.75 -7.66,42.73 0,14.879 2.54,28.598 7.66,41.02 5.12,12.461 12.15,23.16 21.01,32.109 8.87,8.942 19.26,15.86 31.1,20.82 11.87,4.961 24.53,7.418 38.01,7.418 6.17,0 12.34,-0.777 18.39,-2.347 6.1,-1.52 12,-3.672 17.7,-6.403 5.74,-2.777 11.17,-5.976 16.37,-9.648 5.19,-3.711 10.04,-7.699 14.57,-11.988 l 18.94,22.687 z m -49.14,-93.668 c 0,6.68 -1.29,13.129 -3.87,19.418 -2.54,6.25 -6.05,11.789 -10.47,16.602 -4.37,4.84 -9.53,8.711 -15.43,11.64 -5.9,2.887 -12.18,4.368 -18.86,4.368 -6.68,0 -12.97,-1.129 -18.87,-3.399 -5.9,-2.262 -11.02,-5.621 -15.39,-10 -4.34,-4.41 -7.78,-9.879 -10.28,-16.359 -2.5,-6.492 -3.74,-13.91 -3.74,-22.27 0,-8.32 1.24,-15.742 3.74,-22.261 2.5,-6.489 5.94,-11.961 10.28,-16.329 4.37,-4.421 9.49,-7.781 15.39,-10.043 5.9,-2.269 12.19,-3.398 18.87,-3.398 6.68,0 12.96,1.48 18.86,4.371 5.9,2.93 11.06,6.801 15.43,11.649 4.42,4.8 7.93,10.351 10.47,16.64 2.58,6.25 3.87,12.692 3.87,19.371 z m 135.12,11.989 V 735.859 h -48.79 v 191.442 h 11.79 l 16.1,-18.59 c 7.85,7.148 16.76,12.66 26.72,16.559 9.96,3.871 20.35,5.781 31.21,5.781 11.68,0 22.69,-2.223 33.04,-6.672 10.4,-4.5 19.46,-10.629 27.19,-18.438 7.74,-7.781 13.87,-16.921 18.32,-27.351 4.46,-10.43 6.72,-21.52 6.72,-33.32 V 735.859 h -48.83 V 845.27 c 0,5 -0.93,9.73 -2.85,14.218 -1.91,4.461 -4.53,8.364 -7.85,11.684 -3.36,3.359 -7.23,5.976 -11.64,7.887 -4.42,1.882 -9.1,2.851 -14.1,2.851 -5.16,0 -9.96,-0.969 -14.49,-2.851 -4.54,-1.911 -8.48,-4.528 -11.8,-7.887 -3.36,-3.32 -5.98,-7.223 -7.85,-11.684 -1.92,-4.488 -2.89,-9.218 -2.89,-14.218 z m 205.78,0 V 735.859 h -48.83 v 191.442 h 11.8 l 16.09,-18.59 c 7.89,7.148 16.8,12.66 26.72,16.559 9.96,3.871 20.35,5.781 31.21,5.781 11.68,0 22.7,-2.223 33.09,-6.672 10.35,-4.5 19.41,-10.629 27.14,-18.438 7.78,-7.781 13.87,-16.921 18.32,-27.351 4.5,-10.43 6.72,-21.52 6.72,-33.32 V 735.859 h -48.79 V 845.27 c 0,5 -0.97,9.73 -2.89,14.218 -1.87,4.461 -4.53,8.364 -7.85,11.684 -3.32,3.359 -7.22,5.976 -11.6,7.887 -4.41,1.882 -9.14,2.851 -14.14,2.851 -5.12,0 -9.96,-0.969 -14.49,-2.851 -4.53,-1.911 -8.44,-4.528 -11.8,-7.887 -3.32,-3.32 -5.94,-7.223 -7.85,-11.684 -1.92,-4.488 -2.85,-9.218 -2.85,-14.218 z m 341.95,158.21 V 735.859 h -11.8 l -18.94,26.289 c -4.65,-4.179 -9.57,-8.089 -14.73,-11.718 -5.19,-3.629 -10.66,-6.801 -16.37,-9.489 -5.7,-2.66 -11.6,-4.769 -17.61,-6.332 -6.02,-1.558 -12.11,-2.339 -18.32,-2.339 -13.48,0 -26.14,2.531 -37.97,7.609 -11.88,5.082 -22.23,12.109 -31.13,21.101 -8.87,8.981 -15.86,19.641 -20.98,31.989 -5.16,12.34 -7.7,25.781 -7.7,40.312 0,14.418 2.54,27.809 7.7,40.239 5.12,12.378 12.11,23.121 20.98,32.179 8.9,9.031 19.25,16.141 31.13,21.25 11.83,5.121 24.49,7.699 37.97,7.699 4.29,0 8.75,-0.347 13.32,-1.097 4.57,-0.699 9.06,-1.871 13.4,-3.473 4.37,-1.598 8.43,-3.707 12.26,-6.328 3.79,-2.621 7.03,-5.859 9.65,-9.648 v 89.378 z M 2075,833.281 c 0,6.68 -1.29,13.129 -3.87,19.418 -2.54,6.25 -6.01,11.789 -10.43,16.602 -4.41,4.84 -9.57,8.711 -15.47,11.64 -5.89,2.887 -12.18,4.368 -18.86,4.368 -6.68,0 -12.97,-1.207 -18.87,-3.59 -5.9,-2.379 -11.02,-5.778 -15.35,-10.27 -4.38,-4.461 -7.77,-9.929 -10.27,-16.371 -2.5,-6.406 -3.79,-13.668 -3.79,-21.797 0,-7.031 1.29,-13.711 3.79,-20 2.5,-6.332 5.89,-11.871 10.27,-16.64 4.33,-4.762 9.45,-8.52 15.35,-11.25 5.9,-2.77 12.19,-4.141 18.87,-4.141 6.68,0 12.97,1.48 18.86,4.371 5.9,2.93 11.06,6.801 15.47,11.649 4.42,4.8 7.89,10.351 10.43,16.64 2.58,6.25 3.87,12.692 3.87,19.371 z m 254.02,59.731 -91.52,-110.313 c 1.91,-0.59 3.79,-0.98 5.7,-1.179 1.92,-0.149 3.83,-0.27 5.75,-0.27 4.76,0 9.33,0.66 13.75,1.988 4.41,1.293 8.55,3.172 12.42,5.633 3.86,2.418 7.34,5.43 10.39,8.938 3.01,3.519 5.51,7.421 7.38,11.679 l 35.78,-35.898 c -4.53,-6.442 -9.76,-12.219 -15.66,-17.34 -5.9,-5.16 -12.27,-9.488 -19.1,-13.051 -6.88,-3.59 -14.07,-6.289 -21.64,-8.16 -7.58,-1.84 -15.36,-2.769 -23.32,-2.769 -13.48,0 -26.14,2.5 -38.01,7.531 -11.84,5 -22.23,11.961 -31.1,20.898 -8.86,8.949 -15.89,19.571 -21.01,31.922 -5.12,12.34 -7.7,25.899 -7.7,40.66 0,15.16 2.58,28.949 7.7,41.489 5.12,12.5 12.15,23.16 21.01,31.992 8.87,8.828 19.26,15.66 31.1,20.539 11.87,4.89 24.53,7.347 38.01,7.347 7.96,0 15.78,-0.976 23.39,-2.847 7.62,-1.922 14.89,-4.653 21.72,-8.25 6.88,-3.551 13.28,-7.93 19.22,-13.121 5.98,-5.2 11.21,-11.02 15.74,-17.418 z m -123.36,-85.121 56.88,75.429 c -2.27,0.86 -4.53,1.41 -6.72,1.641 -2.23,0.238 -4.49,0.348 -6.87,0.348 -6.68,0 -12.97,-1.207 -18.87,-3.668 -5.9,-2.461 -11.02,-5.942 -15.39,-10.469 -4.34,-4.531 -7.78,-9.961 -10.28,-16.332 -2.5,-6.399 -3.75,-13.59 -3.75,-21.559 0,-1.801 0.08,-3.832 0.28,-6.09 0.19,-2.23 0.47,-4.531 0.9,-6.882 0.43,-2.297 0.89,-4.528 1.52,-6.68 0.59,-2.149 1.37,-4.059 2.3,-5.738 z m 280.86,-72.032 h -37.03 c -11.79,0 -22.85,2.231 -33.24,6.719 -10.35,4.453 -19.45,10.582 -27.27,18.402 -7.81,7.809 -13.94,16.872 -18.39,27.258 -4.46,10.352 -6.72,21.453 -6.72,33.242 v 56.84 h -23.75 v 48.629 h 23.75 v 76.531 h 48.63 v -76.531 h 74.02 V 878.32 h -74.02 v -56.84 c 0,-5.109 0.98,-9.921 2.85,-14.371 1.92,-4.488 4.53,-8.398 7.89,-11.718 3.32,-3.36 7.27,-5.981 11.8,-7.969 4.53,-1.953 9.34,-2.934 14.45,-2.934 h 37.03 z m 132.46,0 h -111.56 v 48.629 h 111.56 c 3.32,0 6.18,1.172 8.56,3.563 2.42,2.379 3.59,5.23 3.59,8.59 0,3.437 -1.17,5.699 -3.59,6.8 -2.38,1.047 -5.24,1.598 -8.56,1.598 h -50.78 c -8.43,0 -16.36,1.602 -23.79,4.84 -7.38,3.211 -13.79,7.582 -19.29,13.133 -5.47,5.539 -9.81,11.988 -12.97,19.367 -3.13,7.422 -4.73,15.351 -4.73,23.793 0,8.476 1.6,16.406 4.73,23.789 3.16,7.379 7.5,13.828 12.97,19.301 5.5,5.468 11.91,9.797 19.29,12.968 7.43,3.161 15.36,4.719 23.79,4.719 h 98.87 V 878.32 h -98.87 c -3.32,0 -6.21,-1.172 -8.59,-3.55 -2.38,-2.391 -3.56,-5.239 -3.56,-8.598 0,-3.442 1.18,-6.402 3.56,-8.832 2.38,-2.461 5.27,-3.668 8.59,-3.668 h 50.78 c 8.32,0 16.22,-1.402 23.6,-4.223 7.38,-2.769 13.83,-6.679 19.3,-11.719 5.5,-5 9.84,-11.011 13.04,-18.039 3.24,-7.031 4.85,-14.73 4.85,-23.05 0,-8.481 -1.61,-16.371 -4.85,-23.672 -3.2,-7.348 -7.54,-13.789 -13.04,-19.34 -5.47,-5.539 -11.92,-9.879 -19.3,-13.039 -7.38,-3.168 -15.28,-4.731 -23.6,-4.731 z m 219.69,0 h -36.99 c -11.8,0 -22.89,2.231 -33.24,6.719 -10.39,4.453 -19.46,10.582 -27.27,18.402 -7.81,7.809 -13.94,16.872 -18.44,27.258 -4.45,10.352 -6.68,21.453 -6.68,33.242 v 56.84 h -23.78 v 48.629 h 23.78 v 76.531 h 48.64 v -76.531 h 73.98 V 878.32 h -73.98 v -56.84 c 0,-5.109 0.93,-9.921 2.85,-14.371 1.91,-4.488 4.53,-8.398 7.85,-11.718 3.36,-3.36 7.27,-5.981 11.8,-7.969 4.53,-1.953 9.37,-2.934 14.49,-2.934 h 36.99 z m 84.92,243.481 c 0,-4.539 -0.86,-8.75 -2.57,-12.699 -1.76,-3.942 -4.11,-7.34 -7.07,-10.27 -2.97,-2.93 -6.49,-5.242 -10.47,-6.992 -3.99,-1.719 -8.25,-2.578 -12.78,-2.578 -4.53,0 -8.79,0.859 -12.77,2.578 -3.98,1.75 -7.46,4.062 -10.39,6.992 -2.89,2.93 -5.24,6.328 -6.95,10.27 -1.72,3.949 -2.62,8.16 -2.62,12.699 0,4.41 0.9,8.59 2.62,12.609 1.71,3.992 4.06,7.43 6.95,10.351 2.93,2.93 6.41,5.24 10.39,7 3.98,1.72 8.24,2.58 12.77,2.58 4.53,0 8.79,-0.86 12.78,-2.58 3.98,-1.76 7.5,-4.07 10.47,-7 2.96,-2.921 5.31,-6.359 7.07,-10.351 1.71,-4.019 2.57,-8.199 2.57,-12.609 z m -8.39,-243.481 h -49.1797 V 927.3 H 2915.2 Z m 86.32,0 h -49.1406 v 267.621 h 49.1406 z m 86.37,0 h -49.1797 v 267.621 h 49.1797 z m 222.54,191.09 v -191.09 h -11.8 l -18.94,26.289 c -4.65,-4.179 -9.57,-8.089 -14.73,-11.718 -5.19,-3.629 -10.66,-6.801 -16.37,-9.489 -5.74,-2.66 -11.6,-4.769 -17.61,-6.332 -6.02,-1.558 -12.11,-2.339 -18.32,-2.339 -13.48,0 -26.14,2.261 -37.97,6.789 -11.88,4.531 -22.23,11.14 -31.14,19.769 -8.86,8.633 -15.85,19.223 -20.97,31.723 -5.16,12.539 -7.7,26.75 -7.7,42.73 0,14.879 2.54,28.598 7.7,41.02 5.12,12.461 12.11,23.16 20.97,32.109 8.91,8.942 19.26,15.86 31.14,20.82 11.83,4.961 24.49,7.418 37.97,7.418 6.21,0 12.34,-0.777 18.39,-2.347 6.1,-1.52 12,-3.672 17.7,-6.403 5.74,-2.777 11.17,-5.976 16.37,-9.648 5.19,-3.711 10.04,-7.699 14.57,-11.988 l 18.94,22.687 z m -49.14,-93.668 c 0,6.68 -1.29,13.129 -3.87,19.418 -2.54,6.25 -6.01,11.789 -10.43,16.602 -4.41,4.84 -9.57,8.711 -15.47,11.64 -5.9,2.887 -12.18,4.368 -18.86,4.368 -6.68,0 -12.97,-1.129 -18.87,-3.399 -5.9,-2.262 -11.02,-5.621 -15.35,-10 -4.38,-4.41 -7.78,-9.879 -10.28,-16.359 -2.54,-6.492 -3.78,-13.91 -3.78,-22.27 0,-8.32 1.24,-15.742 3.78,-22.261 2.5,-6.489 5.9,-11.961 10.28,-16.329 4.33,-4.421 9.45,-7.781 15.35,-10.043 5.9,-2.269 12.19,-3.398 18.87,-3.398 6.68,0 12.96,1.48 18.86,4.371 5.9,2.93 11.06,6.801 15.47,11.649 4.42,4.8 7.89,10.351 10.43,16.64 2.58,6.25 3.87,12.692 3.87,19.371 z m 191.44,-97.422 h -111.56 v 48.629 h 111.56 c 3.36,0 6.22,1.172 8.6,3.563 2.38,2.379 3.55,5.23 3.55,8.59 0,3.437 -1.17,5.699 -3.55,6.8 -2.38,1.047 -5.24,1.598 -8.6,1.598 h -50.78 c -8.43,0 -16.36,1.602 -23.75,4.84 -7.38,3.211 -13.82,7.582 -19.29,13.133 -5.51,5.539 -9.81,11.988 -12.97,19.367 -3.17,7.422 -4.77,15.351 -4.77,23.793 0,8.476 1.6,16.406 4.77,23.789 3.16,7.379 7.46,13.828 12.97,19.301 5.47,5.468 11.91,9.797 19.29,12.968 7.39,3.161 15.32,4.719 23.75,4.719 h 98.87 V 878.32 h -98.87 c -3.32,0 -6.17,-1.172 -8.55,-3.55 -2.38,-2.391 -3.6,-5.239 -3.6,-8.598 0,-3.442 1.22,-6.402 3.6,-8.832 2.38,-2.461 5.23,-3.668 8.55,-3.668 h 50.78 c 8.36,0 16.22,-1.402 23.6,-4.223 7.38,-2.769 13.83,-6.679 19.29,-11.719 5.51,-5 9.85,-11.011 13.09,-18.039 3.2,-7.031 4.81,-14.73 4.81,-23.05 0,-8.481 -1.61,-16.371 -4.81,-23.672 -3.24,-7.348 -7.58,-13.789 -13.09,-19.34 -5.46,-5.539 -11.91,-9.879 -19.29,-13.039 -7.38,-3.168 -15.24,-4.731 -23.6,-4.731 z" /><path
         id="path22"
         style="fill:#004a97;fill-opacity:1;fill-rule:evenodd;stroke:none"
         d="m 1355.59,477.66 v -37.269 h -23.75 v 37.269 c -5.24,1.32 -10.08,3.43 -14.46,6.36 -4.41,2.929 -8.2,6.449 -11.33,10.511 -3.16,4.059 -5.62,8.59 -7.34,13.559 -1.76,4.922 -2.62,10.148 -2.62,15.621 v 35.699 h 23.79 v -35.699 c 0,-3.242 0.63,-6.332 1.88,-9.262 1.25,-2.89 2.97,-5.429 5.12,-7.57 2.14,-2.188 4.68,-3.867 7.57,-5.117 2.93,-1.25 6.02,-1.883 9.26,-1.883 3.28,0 6.37,0.633 9.26,1.883 2.93,1.25 5.43,2.929 7.62,5.117 2.14,2.141 3.86,4.68 5.07,7.57 1.25,2.93 1.88,6.02 1.88,9.262 v 35.699 h 23.75 v -35.699 c 0,-5.473 -0.86,-10.699 -2.62,-15.621 -1.76,-4.969 -4.18,-9.5 -7.34,-13.559 -3.17,-4.062 -6.92,-7.582 -11.29,-10.511 -4.38,-2.93 -9.18,-5.04 -14.45,-6.36 z m 131.99,7.961 c 0,-6.641 -1.17,-12.851 -3.56,-18.551 -2.38,-5.742 -5.62,-10.699 -9.72,-14.879 -4.1,-4.179 -8.91,-7.461 -14.42,-9.851 -5.5,-2.418 -11.4,-3.629 -17.69,-3.629 -6.25,0 -12.15,1.211 -17.66,3.629 -5.51,2.39 -10.31,5.672 -14.45,9.851 -4.1,4.18 -7.35,9.137 -9.73,14.879 -2.38,5.7 -3.59,11.91 -3.59,18.551 0,6.758 1.21,13.008 3.59,18.758 2.38,5.742 5.63,10.699 9.73,14.883 4.14,4.179 8.94,7.457 14.45,9.84 5.51,2.378 11.41,3.597 17.66,3.597 6.29,0 12.19,-1.14 17.69,-3.359 5.51,-2.27 10.32,-5.43 14.42,-9.57 4.1,-4.11 7.34,-9.071 9.72,-14.848 2.39,-5.781 3.56,-12.223 3.56,-19.301 z m -22.81,0 c 0,3.641 -0.63,6.957 -1.8,9.93 -1.21,2.929 -2.81,5.5 -4.85,7.609 -2.07,2.149 -4.45,3.75 -7.18,4.93 -2.74,1.129 -5.67,1.68 -8.75,1.68 -3.13,0 -6.02,-0.551 -8.79,-1.68 -2.74,-1.18 -5.12,-2.781 -7.11,-4.93 -2.03,-2.109 -3.63,-4.68 -4.81,-7.609 -1.13,-2.973 -1.71,-6.289 -1.71,-9.93 0,-3.43 0.58,-6.641 1.71,-9.57 1.18,-2.93 2.78,-5.461 4.81,-7.61 1.99,-2.152 4.37,-3.871 7.11,-5.121 2.77,-1.25 5.66,-1.871 8.79,-1.871 3.08,0 6.01,0.582 8.75,1.75 2.73,1.18 5.11,2.821 7.18,4.891 2.04,2.109 3.64,4.64 4.85,7.648 1.17,2.973 1.8,6.293 1.8,9.883 z m 108.12,-45.23 -7.46,10.347 c -1.84,-1.636 -3.75,-3.199 -5.86,-4.687 -2.07,-1.442 -4.22,-2.731 -6.48,-3.821 -2.27,-1.058 -4.61,-1.921 -7.04,-2.539 -2.42,-0.671 -4.84,-0.98 -7.34,-0.98 -5.47,0 -10.62,0.98 -15.43,2.891 -4.84,1.949 -9.06,4.726 -12.66,8.277 -3.63,3.562 -6.48,7.891 -8.55,13.051 -2.07,5.121 -3.12,10.859 -3.12,17.191 v 49.141 h 22.57 v -49.141 c 0,-2.973 0.47,-5.633 1.37,-8.012 0.94,-2.339 2.15,-4.3 3.71,-5.937 1.52,-1.602 3.36,-2.813 5.43,-3.633 2.07,-0.82 4.3,-1.25 6.68,-1.25 2.31,0 4.53,0.551 6.6,1.641 2.07,1.05 3.87,2.5 5.43,4.261 1.56,1.758 2.78,3.789 3.67,6.008 0.86,2.231 1.33,4.571 1.33,6.922 v 49.141 h 22.66 v -88.871 z m 45.43,48.949 v -48.949 h -22.66 v 88.871 h 5.47 l 7.46,-10.512 c 3.68,3.32 7.82,5.859 12.46,7.66 4.65,1.789 9.46,2.692 14.46,2.692 h 20 V 506.52 h -20 c -2.39,0 -4.65,-0.43 -6.72,-1.321 -2.11,-0.859 -3.95,-2.109 -5.51,-3.64 -1.52,-1.559 -2.73,-3.399 -3.63,-5.508 -0.9,-2.071 -1.33,-4.332 -1.33,-6.711 z m 118.13,-42.969 V 406.52 h -22.86 v 122.742 h 5.51 l 9.02,-10.711 c 2.08,1.961 4.3,3.789 6.72,5.508 2.46,1.722 5,3.171 7.62,4.421 2.62,1.25 5.35,2.219 8.16,2.969 2.82,0.699 5.67,1.051 8.56,1.051 6.25,0 12.15,-1.09 17.66,-3.359 5.5,-2.231 10.31,-5.391 14.41,-9.493 4.14,-4.097 7.38,-9.027 9.77,-14.808 2.38,-5.781 3.55,-12.18 3.55,-19.219 0,-7.301 -1.17,-13.902 -3.55,-19.723 -2.39,-5.82 -5.63,-10.777 -9.77,-14.847 -4.1,-4.063 -8.91,-7.18 -14.41,-9.332 -5.51,-2.188 -11.41,-3.239 -17.66,-3.239 -1.99,0 -3.98,0.192 -5.94,0.661 -1.95,0.429 -3.9,1.019 -5.82,1.757 -1.91,0.782 -3.79,1.602 -5.62,2.543 -1.88,0.938 -3.64,1.911 -5.35,2.93 z m 45.39,39.25 c 0,3.758 -0.59,7.109 -1.8,10.117 -1.17,2.973 -2.77,5.512 -4.84,7.582 -2.04,2.11 -4.46,3.668 -7.23,4.801 -2.77,1.098 -5.7,1.649 -8.79,1.649 -3.09,0 -6.02,-0.551 -8.75,-1.649 -2.73,-1.133 -5.16,-2.691 -7.19,-4.801 -2.03,-2.07 -3.67,-4.609 -4.84,-7.582 -1.21,-3.008 -1.8,-6.359 -1.8,-10.117 0,-3.59 0.59,-6.91 1.8,-9.883 1.17,-3.008 2.81,-5.539 4.84,-7.648 2.03,-2.07 4.46,-3.711 7.19,-4.891 2.73,-1.168 5.66,-1.75 8.75,-1.75 3.09,0 6.02,0.582 8.79,1.75 2.77,1.18 5.19,2.821 7.23,4.891 2.07,2.109 3.67,4.64 4.84,7.648 1.21,2.973 1.8,6.293 1.8,9.883 z m 113.12,27.699 -42.5,-51.211 c 0.9,-0.269 1.8,-0.429 2.66,-0.507 0.9,-0.122 1.79,-0.153 2.65,-0.153 2.23,0 4.38,0.313 6.41,0.93 2.07,0.59 3.98,1.492 5.78,2.621 1.8,1.129 3.4,2.5 4.81,4.141 1.4,1.64 2.57,3.437 3.43,5.429 l 16.6,-16.679 c -2.1,-3.012 -4.53,-5.661 -7.26,-8.051 -2.74,-2.379 -5.7,-4.41 -8.87,-6.051 -3.2,-1.68 -6.52,-2.93 -10.04,-3.789 -3.51,-0.859 -7.15,-1.289 -10.86,-1.289 -6.25,0 -12.11,1.168 -17.61,3.48 -5.51,2.34 -10.32,5.579 -14.46,9.719 -4.1,4.141 -7.38,9.11 -9.76,14.809 -2.35,5.742 -3.56,12.031 -3.56,18.902 0,7.039 1.21,13.438 3.56,19.258 2.38,5.781 5.66,10.742 9.76,14.851 4.14,4.098 8.95,7.258 14.46,9.532 5.5,2.297 11.36,3.437 17.61,3.437 3.71,0 7.35,-0.469 10.9,-1.328 3.56,-0.902 6.92,-2.191 10.08,-3.832 3.2,-1.68 6.17,-3.711 8.91,-6.09 2.77,-2.429 5.23,-5.121 7.3,-8.129 z m -57.26,-39.492 26.4,35.043 c -1.05,0.391 -2.07,0.617 -3.12,0.738 -1.02,0.121 -2.07,0.161 -3.21,0.161 -3.08,0 -6.01,-0.551 -8.75,-1.68 -2.73,-1.18 -5.11,-2.781 -7.11,-4.891 -2.03,-2.109 -3.63,-4.609 -4.8,-7.578 -1.13,-2.961 -1.72,-6.281 -1.72,-10 0,-0.851 0.04,-1.793 0.12,-2.851 0.08,-1.008 0.23,-2.11 0.43,-3.161 0.19,-1.089 0.43,-2.148 0.7,-3.129 0.27,-1.011 0.63,-1.871 1.06,-2.652 z m 91.32,15.512 v -48.949 h -22.65 v 88.871 h 5.47 l 7.46,-10.512 c 3.67,3.32 7.81,5.859 12.46,7.66 4.65,1.789 9.45,2.692 14.45,2.692 h 20 V 506.52 h -20 c -2.38,0 -4.65,-0.43 -6.76,-1.321 -2.07,-0.859 -3.9,-2.109 -5.47,-3.64 -1.52,-1.559 -2.77,-3.399 -3.63,-5.508 -0.9,-2.071 -1.33,-4.332 -1.33,-6.711 z m 76.53,17.34 v -66.289 h -22.66 v 66.289 h -11.05 v 22.582 h 11.05 v 4.258 c 0,5.46 1.02,10.621 3.13,15.429 2.07,4.801 4.92,9.02 8.51,12.571 3.63,3.558 7.85,6.41 12.66,8.48 4.84,2.07 9.96,3.09 15.47,3.09 h 16.99 v -22.578 h -16.99 c -2.46,0 -4.69,-0.434 -6.76,-1.25 -2.11,-0.864 -3.91,-2.071 -5.43,-3.602 -1.52,-1.519 -2.7,-3.32 -3.59,-5.39 -0.9,-2.071 -1.33,-4.329 -1.33,-6.75 v -4.258 h 27.81 V 506.68 Z m 114.72,6.64 -42.5,-51.211 c 0.86,-0.269 1.76,-0.429 2.66,-0.507 0.86,-0.122 1.76,-0.153 2.66,-0.153 2.18,0 4.33,0.313 6.36,0.93 2.07,0.59 3.99,1.492 5.78,2.621 1.8,1.129 3.4,2.5 4.81,4.141 1.41,1.64 2.58,3.437 3.44,5.429 l 16.6,-16.679 c -2.07,-3.012 -4.49,-5.661 -7.23,-8.051 -2.77,-2.379 -5.7,-4.41 -8.9,-6.051 -3.17,-1.68 -6.53,-2.93 -10.04,-3.789 -3.52,-0.859 -7.11,-1.289 -10.82,-1.289 -6.25,0 -12.15,1.168 -17.66,3.48 -5.51,2.34 -10.31,5.579 -14.45,9.719 -4.1,4.141 -7.35,9.11 -9.73,14.809 -2.38,5.742 -3.59,12.031 -3.59,18.902 0,7.039 1.21,13.438 3.59,19.258 2.38,5.781 5.63,10.742 9.73,14.851 4.14,4.098 8.94,7.258 14.45,9.532 5.51,2.297 11.41,3.437 17.66,3.437 3.71,0 7.3,-0.469 10.86,-1.328 3.55,-0.902 6.91,-2.191 10.07,-3.832 3.21,-1.68 6.18,-3.711 8.95,-6.09 2.77,-2.429 5.19,-5.121 7.3,-8.129 z m -57.3,-39.492 26.41,35.043 c -1.06,0.391 -2.08,0.617 -3.09,0.738 -1.06,0.121 -2.11,0.161 -3.2,0.161 -3.13,0 -6.02,-0.551 -8.75,-1.68 -2.78,-1.18 -5.12,-2.781 -7.15,-4.891 -2.03,-2.109 -3.64,-4.609 -4.77,-7.578 -1.17,-2.961 -1.76,-6.281 -1.76,-10 0,-0.851 0.04,-1.793 0.12,-2.851 0.08,-1.008 0.24,-2.11 0.43,-3.161 0.2,-1.089 0.43,-2.148 0.7,-3.129 0.28,-1.011 0.63,-1.871 1.06,-2.652 z m 145.7,37.774 -16.6,-16.68 c -0.82,2.308 -1.95,4.418 -3.4,6.25 -1.44,1.879 -3.08,3.437 -4.88,4.687 -1.8,1.289 -3.75,2.262 -5.82,2.93 -2.11,0.66 -4.26,0.981 -6.49,0.981 -3.08,0 -6.01,-0.629 -8.75,-1.918 -2.73,-1.25 -5.11,-3.051 -7.14,-5.352 -2.04,-2.301 -3.64,-5 -4.77,-8.16 -1.17,-3.168 -1.76,-6.641 -1.76,-10.469 0,-3.09 0.59,-6.019 1.76,-8.711 1.13,-2.699 2.73,-5.082 4.77,-7.148 2.03,-2.032 4.41,-3.633 7.14,-4.813 2.74,-1.168 5.67,-1.75 8.75,-1.75 2.23,0 4.34,0.313 6.37,0.93 2.07,0.59 3.99,1.492 5.78,2.621 1.8,1.129 3.4,2.5 4.81,4.141 1.44,1.64 2.58,3.437 3.47,5.429 l 16.61,-16.679 c -2.11,-3.012 -4.54,-5.661 -7.27,-8.051 -2.73,-2.379 -5.7,-4.41 -8.91,-6.051 -3.16,-1.68 -6.52,-2.93 -10.04,-3.789 -3.51,-0.859 -7.1,-1.289 -10.82,-1.289 -6.25,0 -12.14,1.168 -17.65,3.519 -5.51,2.379 -10.31,5.579 -14.42,9.68 -4.14,4.11 -7.38,8.871 -9.76,14.379 -2.38,5.473 -3.6,11.332 -3.6,17.582 0,6.789 1.22,13.16 3.6,19.098 2.38,5.902 5.62,11.09 9.76,15.472 4.11,4.411 8.91,7.887 14.42,10.43 5.51,2.539 11.4,3.828 17.65,3.828 3.72,0 7.35,-0.469 10.9,-1.449 3.6,-0.941 7,-2.301 10.24,-4.102 3.24,-1.796 6.21,-3.988 8.94,-6.597 2.74,-2.582 5.12,-5.59 7.11,-8.949 z m 72.78,-71.211 h -17.15 c -5.51,0 -10.63,1.019 -15.47,3.089 -4.81,2.071 -9.03,4.918 -12.66,8.551 -3.59,3.629 -6.44,7.848 -8.55,12.66 -2.07,4.797 -3.09,9.957 -3.09,15.43 v 26.399 h -11.05 v 22.582 h 11.05 v 35.546 h 22.58 v -35.546 h 34.34 V 506.52 h -34.34 v -26.399 c 0,-2.351 0.43,-4.57 1.33,-6.68 0.86,-2.07 2.11,-3.871 3.63,-5.429 1.56,-1.532 3.4,-2.782 5.47,-3.672 2.11,-0.942 4.37,-1.371 6.76,-1.371 h 17.15 z m 83.12,5.98 V 406.52 h -22.85 v 122.742 h 5.47 l 9.06,-10.711 c 2.07,1.961 4.3,3.789 6.72,5.508 2.46,1.722 4.96,3.171 7.62,4.421 2.61,1.25 5.35,2.219 8.16,2.969 2.81,0.699 5.66,1.051 8.55,1.051 6.25,0 12.11,-1.09 17.62,-3.359 5.51,-2.231 10.35,-5.391 14.46,-9.493 4.14,-4.097 7.38,-9.027 9.76,-14.808 2.38,-5.781 3.56,-12.18 3.56,-19.219 0,-7.301 -1.18,-13.902 -3.56,-19.723 -2.38,-5.82 -5.62,-10.777 -9.76,-14.847 -4.11,-4.063 -8.95,-7.18 -14.46,-9.332 -5.51,-2.188 -11.37,-3.239 -17.62,-3.239 -1.99,0 -3.98,0.192 -5.93,0.661 -1.96,0.429 -3.91,1.019 -5.82,1.757 -1.92,0.782 -3.79,1.602 -5.63,2.543 -1.87,0.938 -3.63,1.911 -5.35,2.93 z m 45.39,39.25 c 0,3.758 -0.58,7.109 -1.8,10.117 -1.17,2.973 -2.81,5.512 -4.84,7.582 -2.03,2.11 -4.45,3.668 -7.23,4.801 -2.77,1.098 -5.7,1.649 -8.79,1.649 -3.08,0 -6.01,-0.551 -8.75,-1.649 -2.73,-1.133 -5.15,-2.691 -7.18,-4.801 -2.07,-2.07 -3.67,-4.609 -4.85,-7.582 -1.21,-3.008 -1.79,-6.359 -1.79,-10.117 0,-3.59 0.58,-6.91 1.79,-9.883 1.18,-3.008 2.78,-5.539 4.85,-7.648 2.03,-2.07 4.45,-3.711 7.18,-4.891 2.74,-1.168 5.67,-1.75 8.75,-1.75 3.09,0 6.02,0.582 8.79,1.75 2.78,1.18 5.2,2.821 7.23,4.891 2.03,2.109 3.67,4.64 4.84,7.648 1.22,2.973 1.8,6.293 1.8,9.883 z m 121.37,43.481 v -88.711 h -5.51 l -8.79,12.187 c -2.15,-1.957 -4.41,-3.75 -6.83,-5.43 -2.43,-1.679 -4.97,-3.168 -7.62,-4.418 -2.66,-1.25 -5.35,-2.218 -8.17,-2.929 -2.77,-0.742 -5.62,-1.09 -8.51,-1.09 -6.25,0 -12.11,1.059 -17.62,3.168 -5.51,2.101 -10.31,5.152 -14.45,9.172 -4.1,3.988 -7.38,8.91 -9.77,14.73 -2.38,5.821 -3.55,12.418 -3.55,19.84 0,6.918 1.17,13.25 3.55,19.027 2.39,5.782 5.67,10.782 9.77,14.922 4.14,4.141 8.94,7.379 14.45,9.649 5.51,2.301 11.37,3.48 17.62,3.48 2.89,0 5.74,-0.398 8.55,-1.097 2.82,-0.704 5.59,-1.723 8.25,-3.012 2.65,-1.25 5.15,-2.731 7.57,-4.449 2.43,-1.719 4.65,-3.59 6.76,-5.59 l 8.79,10.551 z m -22.85,-43.481 c 0,3.09 -0.59,6.098 -1.76,8.988 -1.21,2.93 -2.81,5.512 -4.88,7.731 -2.04,2.23 -4.42,4.031 -7.15,5.39 -2.78,1.372 -5.67,2.04 -8.79,2.04 -3.09,0 -6.02,-0.508 -8.75,-1.571 -2.74,-1.051 -5.12,-2.609 -7.15,-4.648 -1.99,-2.071 -3.59,-4.602 -4.77,-7.61 -1.17,-3.011 -1.71,-6.453 -1.71,-10.32 0,-3.859 0.54,-7.34 1.71,-10.351 1.18,-3 2.78,-5.54 4.77,-7.571 2.03,-2.078 4.41,-3.597 7.15,-4.648 2.73,-1.063 5.66,-1.602 8.75,-1.602 3.12,0 6.01,0.699 8.79,2.031 2.73,1.36 5.11,3.161 7.15,5.43 2.07,2.219 3.67,4.801 4.88,7.692 1.17,2.929 1.76,5.898 1.76,9.019 z m 62.77,3.719 v -48.949 h -22.66 v 88.871 h 5.47 l 7.46,-10.512 c 3.68,3.32 7.82,5.859 12.46,7.66 4.65,1.789 9.46,2.692 14.46,2.692 h 20 V 506.52 h -20 c -2.39,0 -4.65,-0.43 -6.72,-1.321 -2.11,-0.859 -3.95,-2.109 -5.51,-3.64 -1.52,-1.559 -2.73,-3.399 -3.63,-5.508 -0.9,-2.071 -1.33,-4.332 -1.33,-6.711 z m 109.49,-48.949 h -17.19 c -5.46,0 -10.62,1.019 -15.43,3.089 -4.84,2.071 -9.06,4.918 -12.65,8.551 -3.63,3.629 -6.49,7.848 -8.56,12.66 -2.07,4.797 -3.12,9.957 -3.12,15.43 v 26.399 h -11.06 v 22.582 h 11.06 v 35.546 h 22.58 v -35.546 h 34.37 V 506.52 h -34.37 v -26.399 c 0,-2.351 0.43,-4.57 1.33,-6.68 0.89,-2.07 2.1,-3.871 3.63,-5.429 1.56,-1.532 3.4,-2.782 5.51,-3.672 2.11,-0.942 4.33,-1.371 6.71,-1.371 h 17.19 z m 35.35,50.781 v -50.781 h -22.65 v 88.871 h 5.47 l 7.46,-8.641 c 3.67,3.328 7.81,5.899 12.42,7.699 4.61,1.801 9.45,2.7 14.49,2.7 5.43,0 10.55,-1.02 15.35,-3.129 4.81,-2.071 9.03,-4.922 12.62,-8.512 3.59,-3.641 6.45,-7.899 8.52,-12.738 2.07,-4.84 3.08,-10 3.08,-15.469 v -50.781 h -22.65 v 50.781 c 0,2.348 -0.43,4.527 -1.33,6.598 -0.86,2.07 -2.07,3.91 -3.64,5.429 -1.56,1.571 -3.35,2.781 -5.39,3.68 -2.07,0.851 -4.25,1.32 -6.56,1.32 -2.38,0 -4.61,-0.469 -6.72,-1.32 -2.11,-0.899 -3.94,-2.109 -5.51,-3.68 -1.52,-1.519 -2.73,-3.359 -3.63,-5.429 -0.9,-2.071 -1.33,-4.25 -1.33,-6.598 z m 150.75,22.148 -42.5,-51.211 c 0.89,-0.269 1.75,-0.429 2.65,-0.507 0.9,-0.122 1.76,-0.153 2.66,-0.153 2.23,0 4.33,0.313 6.4,0.93 2.04,0.59 3.95,1.492 5.75,2.621 1.79,1.129 3.4,2.5 4.84,4.141 1.41,1.64 2.54,3.437 3.44,5.429 l 16.6,-16.679 c -2.11,-3.012 -4.53,-5.661 -7.27,-8.051 -2.73,-2.379 -5.7,-4.41 -8.9,-6.051 -3.17,-1.68 -6.53,-2.93 -10.04,-3.789 -3.52,-0.859 -7.11,-1.289 -10.82,-1.289 -6.25,0 -12.15,1.168 -17.66,3.48 -5.51,2.34 -10.31,5.579 -14.41,9.719 -4.14,4.141 -7.38,9.11 -9.77,14.809 -2.38,5.742 -3.55,12.031 -3.55,18.902 0,7.039 1.17,13.438 3.55,19.258 2.39,5.781 5.63,10.742 9.77,14.851 4.1,4.098 8.9,7.258 14.41,9.532 5.51,2.297 11.41,3.437 17.66,3.437 3.71,0 7.34,-0.469 10.86,-1.328 3.55,-0.902 6.91,-2.191 10.11,-3.832 3.17,-1.68 6.14,-3.711 8.91,-6.09 2.77,-2.429 5.2,-5.121 7.31,-8.129 z m -57.27,-39.492 26.37,35.043 c -1.02,0.391 -2.07,0.617 -3.09,0.738 -1.01,0.121 -2.11,0.161 -3.2,0.161 -3.09,0 -6.02,-0.551 -8.75,-1.68 -2.74,-1.18 -5.12,-2.781 -7.15,-4.891 -2.03,-2.109 -3.59,-4.609 -4.77,-7.578 -1.17,-2.961 -1.75,-6.281 -1.75,-10 0,-0.851 0.04,-1.793 0.11,-2.851 0.12,-1.008 0.24,-2.11 0.43,-3.161 0.2,-1.089 0.43,-2.148 0.71,-3.129 0.27,-1.011 0.62,-1.871 1.09,-2.652 z m 91.29,15.512 v -48.949 h -22.66 v 88.871 h 5.47 l 7.5,-10.512 c 3.63,3.32 7.78,5.859 12.42,7.66 4.65,1.789 9.5,2.692 14.46,2.692 h 20 V 506.52 h -20 c -2.39,0 -4.61,-0.43 -6.72,-1.321 -2.11,-0.859 -3.95,-2.109 -5.47,-3.64 -1.56,-1.559 -2.77,-3.399 -3.67,-5.508 -0.86,-2.071 -1.33,-4.332 -1.33,-6.711 z" /></g></g></svg>